<?xml version="1.0" encoding="utf-8"?>
<!-- Generator: Adobe Illustrator 26.4.1, SVG Export Plug-In . SVG Version: 6.00 Build 0) -->
<svg version="1.1" id="Layer_1" xmlns="http://www.w3.org/2000/svg" xmlns:xlink="http://www.w3.org/1999/xlink" x="0px" y="0px" viewBox="0 0 322.9 42.4" style="enable-background:new 0 0 322.9 42.4;" xml:space="preserve">
	<style type="text/css">
		.st0{fill:#253B7E;}
		.st1{fill:url(#SVGID_1_);}
		.st2{fill:#2B4695;}
		.st3{fill:#3759BE;}
	</style>
	<g>
		<g>
			<path class="st0" d="M31.2,38.2c-0.3-0.9-0.6-1.8-0.7-2.2c-0.1-0.3-0.3-0.6-0.4-0.9c-0.1-0.2-0.4-0.8-0.7-1.5
			c-0.6-1.4-1.7-2.5-3.1-3l0,0c-0.9-0.4-1.9-0.5-2.9-0.4H23c-1.6,0.2-2.2,0.3-4.1,0.4l-1.4-0.1c-2.3-0.2-4.6,0.3-6.8-0.6
			c-0.6-0.2-1.7-0.8-2.5-1.5c-0.7-0.4-1.2-1-1.6-1.8l-0.9-1.8l-0.6-1.2c0,0-1-1.2-1.1-1.8c-0.1-0.4,0-0.9,0.4-1.2
			c0.5-0.4,1.4-0.8,1.9-0.9l5.3-2.1l3.5-1.7c0.1,0,0.3-0.1,0.4-0.2l0.1-0.1c0.3-0.2,0.6-0.4,0.8-0.8c0,0,0.9-2.4,1.6-3l0.8-0.8
			c2.1-2,4.5-3.6,7.3-4.6c1.2-0.4,2.2-0.8,2.5-0.9c1.6-0.3,3.3-0.3,4.9,0h0.1C34.3,5.8,35,6,35.7,6.2c-3.8-3.7-9-6-14.7-6l0,0
			c-11.6,0-21,9.4-21,21l0,0c0,11.6,9.4,21,21,21h11.5C32,40.9,31.6,39.6,31.2,38.2z" />
			<path class="st0" d="M21.2,14.1c-1-0.2-2,0.4-2.3,1.4l-0.2,0.6c-0.1,0.3,0.1,0.5,0.4,0.6l0.7,0.2c1.5,0.3,2.9-0.6,3.3-2l0,0
			c0-0.2-0.1-0.3-0.2-0.4L21.2,14.1z" />
		</g>
	</g>
	<linearGradient id="SVGID_1_" gradientUnits="userSpaceOnUse" x1="34.1462" y1="36.281" x2="47.4497" y2="-0.27" gradientTransform="matrix(1 0 0 -1 0 44)">
		<stop offset="0" style="stop-color:#253B7E" />
		<stop offset="1" style="stop-color:#697FC3" />
	</linearGradient>
	<path class="st1" d="M52.6,42.3H40.8c-1,0-2.1-0.8-2.5-1.8l-10.5-29c-0.4-1,0.2-1.8,1.2-1.8h11.8c1,0,2.1,0.8,2.5,1.8l10.5,28.9
	C54.1,41.4,53.6,42.3,52.6,42.3z" />
	<g>
		<path class="st2" d="M113.6,0.6L107.2,42H89.3c-1.6-6.4-3.1-13.6-4.3-21.7C84.4,23.8,83.1,31,81,42H63.2L56.8,0.6h13.9L72.2,15
		l1.5,14c0.5-7.2,1.9-16.7,4-28.4h14.9c0.2,1.2,0.7,5.8,1.6,13.7L95.7,30c0.8-10,2.1-19.8,4-29.4C99.7,0.6,113.6,0.6,113.6,0.6z" />
		<path class="st2" d="M130.2,0.6V6H116V0.6H130.2z M130.2,8.1V42H116V8.1H130.2z" />
		<path class="st2" d="M149.2,8.1l-0.2,3.1c1-1.2,2.2-2.2,3.7-2.8c1.4-0.6,3.1-0.9,5-0.9c2.4,0,4.3,0.4,5.8,1.3
		c1.5,0.8,2.5,1.9,2.9,3.2s0.6,3.4,0.6,6.4V42h-13.8V18.5c0-2.3-0.1-3.8-0.3-4.3s-0.8-0.8-1.7-0.8c-1,0-1.6,0.3-1.8,0.9
		c-0.3,0.6-0.4,2.2-0.4,4.7v23h-13.8V8.1H149.2z" />
		<path class="st2" d="M203,0.6V42h-13.8v-2.5c-1.3,1-2.7,1.8-4.2,2.3s-3,0.8-4.6,0.8c-2.1,0-4-0.4-5.6-1.3s-2.6-1.8-3-2.9
		c-0.4-1.1-0.7-2.9-0.7-5.4V17.2c0-2.6,0.2-4.5,0.7-5.5c0.4-1.1,1.5-2.1,3-2.9s3.5-1.2,5.7-1.2c1.7,0,3.3,0.2,4.7,0.7
		s2.7,1.2,3.9,2.1V0.6H203z M189.2,16.6c0-1.2-0.1-2.1-0.4-2.5c-0.3-0.4-0.8-0.6-1.7-0.6c-0.8,0-1.4,0.2-1.7,0.6
		c-0.3,0.4-0.4,1.2-0.4,2.6v16.6c0,1.4,0.1,2.3,0.4,2.7s0.8,0.7,1.6,0.7c0.9,0,1.5-0.2,1.8-0.7s0.4-1.7,0.4-3.6L189.2,16.6
		L189.2,16.6z" />
	</g>
	<g>
		<path class="st3" d="M249.2,0.6L241.9,42h-21.8l-8.3-41.4h15.1c1.8,11.4,3,21.1,3.8,29c0.7-8,1.5-15.1,2.4-21.3l1-7.7
		C234.1,0.6,249.2,0.6,249.2,0.6z" />
		<path class="st3" d="M283.6,0.6V42H271l-7.5-18.8V42h-12V0.6h12l8,18.7V0.6H283.6z" />
		<path class="st3" d="M322.9,18.8h-14.3v-6.9c0-2-0.2-3.3-0.5-3.8s-1-0.7-2-0.7c-1.2,0-1.9,0.3-2.2,0.9c-0.3,0.6-0.5,1.9-0.5,3.9
		v18.5c0,1.9,0.2,3.2,0.5,3.8c0.3,0.6,1,0.9,2.1,0.9s1.8-0.3,2.1-0.9c0.3-0.6,0.5-2,0.5-4.2v-5h14.3v1.5c0,4.1-0.4,7-1.2,8.8
		c-0.8,1.7-2.6,3.2-5.4,4.5s-6.2,1.9-10.2,1.9c-4.2,0-7.7-0.5-10.4-1.6c-2.7-1.1-4.5-2.6-5.4-4.6c-0.9-1.9-1.3-4.9-1.3-8.8V15.5
		c0-2.9,0.1-5,0.4-6.4s1.1-2.8,2.4-4.1c1.4-1.3,3.2-2.4,5.6-3.1c2.4-0.8,5.2-1.1,8.3-1.1c4.2,0,7.7,0.6,10.5,1.8
		c2.7,1.2,4.6,2.6,5.4,4.4c0.9,1.8,1.3,4.5,1.3,8.2L322.9,18.8L322.9,18.8z" />
	</g>
</svg>
