<?xml version="1.0" encoding="utf-8"?>
<!-- Generator: Adobe Illustrator 26.4.1, SVG Export Plug-In . SVG Version: 6.00 Build 0)  -->
<svg version="1.1" id="uuid-1b4f74e5-405c-4fa2-9832-10712ceeef61"
	 xmlns="http://www.w3.org/2000/svg" xmlns:xlink="http://www.w3.org/1999/xlink" x="0px" y="0px" viewBox="0 0 392.6 42"
	 style="enable-background:new 0 0 392.6 42;" xml:space="preserve">
<style type="text/css">
	.st0{fill:#3759BE;}
	.st1{fill:#2B4695;}
	.st2{fill:#253B7E;}
	.st3{fill:url(#SVGID_1_);}
</style>
<g>
	<g>
		<path class="st0" d="M318.9,0.3l-7.3,41.4h-21.8l-8.3-41.4h15.1c1.8,11.4,3,21.1,3.8,29c0.7-8,1.5-15.1,2.4-21.3l1-7.7
			C303.8,0.3,318.9,0.3,318.9,0.3z"/>
		<path class="st0" d="M353.3,0.3v41.4h-12.6l-7.5-18.8v18.8h-12V0.3h12l8,18.7V0.3H353.3z"/>
		<path class="st0" d="M392.6,18.5h-14.3v-6.9c0-2-0.2-3.3-0.5-3.8s-1-0.7-2-0.7c-1.2,0-1.9,0.3-2.2,0.9c-0.3,0.6-0.5,1.9-0.5,3.9
			v18.5c0,1.9,0.2,3.2,0.5,3.8s1,0.9,2.1,0.9s1.8-0.3,2.1-0.9c0.3-0.6,0.5-2,0.5-4.2v-5h14.3v1.5c0,4.1-0.4,7-1.2,8.8
			c-0.8,1.7-2.6,3.2-5.4,4.5s-6.2,1.9-10.2,1.9c-4.2,0-7.7-0.5-10.4-1.6c-2.7-1.1-4.5-2.6-5.4-4.6c-0.9-1.9-1.3-4.9-1.3-8.8V15.2
			c0-2.9,0.1-5,0.4-6.4s1.1-2.8,2.4-4.1c1.4-1.3,3.2-2.4,5.6-3.1c2.4-0.8,5.2-1.1,8.3-1.1c4.2,0,7.7,0.6,10.5,1.8
			c2.7,1.2,4.6,2.6,5.4,4.4c0.9,1.8,1.3,4.5,1.3,8.2L392.6,18.5L392.6,18.5L392.6,18.5z"/>
	</g>
	<path class="st1" d="M81,19.3c2.9-0.5,4.8-1.3,5.9-2.2c0.9-0.9,1.5-2.7,1.5-5.1c0-3.6-0.7-6.2-2.1-7.9S83,1.4,80.7,0.8
		C78.3,0.3,75-0.1,70.5-0.1h-14v42h16.4c5.7,0,9.5-0.2,11.3-0.7s3.2-1.5,4-2.8c0.8-1.4,1.3-3.5,1.3-6.3v-3.9c0-2.7-0.6-4.7-1.8-6.1
		C86.4,20.7,84.2,19.8,81,19.3L81,19.3z M70.5,7.1c1.5,0,2.2,0,2.7,0.2s0.9,0.5,1.3,1C74.8,8.8,75,9.7,75,11c0,2.5-0.1,4-0.5,4.5
		c-0.3,0.5-1.3,0.8-2.6,0.8h-1.4C70.5,16.4,70.5,7.1,70.5,7.1z M75.1,30.9c0,1.7-0.3,2.7-0.8,3.2c-0.5,0.4-1.8,0.7-3.8,0.7V23
		c2.1,0,3.5,0.2,3.9,0.7c0.5,0.3,0.7,1.5,0.7,3.3C75.1,27,75.1,30.9,75.1,30.9z"/>
	<path class="st1" d="M124.5,3.1c-1.3-1.2-3.2-1.9-5.6-2.4s-7.1-0.7-14-0.7H94.3v41.9h18c3.5,0,6-0.1,7.7-0.4c1.7-0.2,3-0.7,4.2-1.5
		c1.2-0.6,2-1.7,2.4-2.9c0.5-1.3,0.7-3.8,0.7-7.6V14.8c0-4-0.1-6.6-0.4-8C126.5,5.4,125.8,4.3,124.5,3.1z M113.2,28.8
		c0,2.8-0.3,4.5-0.7,5.1c-0.5,0.6-1.8,0.9-3.8,0.9V7.1c1.6,0,2.6,0.1,3.3,0.4c0.5,0.2,0.9,0.6,1,1.2c0.1,0.6,0.2,1.8,0.2,3.7V28.8z"
		/>
	<path class="st1" d="M168.1,29.6l-1.6-15.7c-0.8-7.8-1.3-12.4-1.6-13.6h-14.4c-2.1,11.7-3.3,21.1-3.8,28.4l-1.4-13.9l-1.5-14.5
		h-13.5l6.3,41.4h17.3c2.1-10.9,3.4-18.2,3.9-21.7c1.2,8.1,2.7,15.3,4.2,21.7h17.5l6.2-41.4V0.2H172
		C170.2,9.8,168.9,19.6,168.1,29.6L168.1,29.6z"/>
	<g>
		<rect x="188.1" y="0.4" class="st1" width="13.8" height="5.4"/>
		<rect x="188.1" y="7.8" class="st1" width="13.8" height="33.8"/>
	</g>
	<polygon class="st1" points="220.4,7.5 220.4,7.8 220.4,7.8 	"/>
	<path class="st1" d="M234.4,8.1c-1.6-0.8-3.4-1.2-5.7-1.2c-1.9,0-3.4,0.3-4.9,0.9c-1.4,0.6-2.7,1.6-3.6,2.8l0.2-2.8h-13.6v33.8
		h13.4V18.8c0-2.6,0.2-4.1,0.4-4.7c0.2-0.6,0.8-0.9,1.8-0.9s1.4,0.2,1.6,0.7s0.3,1.9,0.3,4.2v23.4h13.4V17.7c0-3-0.2-5.2-0.6-6.4
		C236.7,10,235.8,9,234.4,8.1z"/>
	<path class="st1" d="M259.5,0v9.6c-1-0.9-2.4-1.6-3.7-2.1c-1.3-0.5-2.9-0.7-4.5-0.7c-2.2,0-4,0.4-5.6,1.2c-1.6,0.8-2.6,1.8-3,2.9
		c-0.4,1.1-0.6,3-0.6,5.6v15.9c0,2.5,0.2,4.2,0.6,5.4c0.4,1,1.3,2.1,2.9,2.9c1.4,0.8,3.3,1.2,5.4,1.2c1.6,0,3-0.2,4.4-0.7
		s2.8-1.2,4-2.3v2.5h13.4V0H259.5L259.5,0z M259.4,31.8c0,2-0.1,3.1-0.4,3.6c-0.3,0.5-0.9,0.7-1.8,0.7c-0.9,0-1.2-0.2-1.6-0.6
		c-0.4-0.4-0.4-1.3-0.4-2.7V16.2c0-1.3,0.1-2.2,0.4-2.6s0.8-0.6,1.6-0.6s1.3,0.2,1.6,0.6s0.4,1.2,0.4,2.5L259.4,31.8L259.4,31.8z"/>
	<g>
		<g>
			<g>
				<path class="st2" d="M31.1,37.8c-0.3-0.9-0.6-1.8-0.7-2.2c-0.1-0.3-0.3-0.6-0.4-0.9c-0.1-0.2-0.4-0.8-0.7-1.5
					c-0.6-1.4-1.7-2.5-3.1-3l0,0c-0.9-0.4-1.9-0.5-2.9-0.4h-0.4c-1.6,0.2-2.2,0.3-4.1,0.4l-1.4-0.1c-2.3-0.2-4.6,0.3-6.8-0.6
					C10.1,29.3,9,28.7,8.2,28c-0.7-0.4-1.2-1-1.6-1.8l-0.9-1.8l-0.6-1.2c0,0-1-1.2-1.1-1.8c-0.1-0.4,0-0.9,0.4-1.2
					c0.5-0.4,1.4-0.8,1.9-0.9l5.3-2.1l3.5-1.7c0.1,0,0.3-0.1,0.4-0.2l0.1-0.1c0.3-0.2,0.6-0.4,0.8-0.8c0,0,0.9-2.4,1.6-3l0.8-0.8
					c2.1-2,4.5-3.6,7.3-4.6c1.2-0.4,2.2-0.8,2.5-0.9c1.6-0.3,3.3-0.3,4.9,0h0.1c0.7,0.3,1.4,0.5,2.1,0.7c-3.8-3.7-9-6-14.7-6l0,0
					c-11.6,0-21,9.4-21,21l0,0c0,11.6,9.4,21,21,21h11.5C31.9,40.5,31.5,39.2,31.1,37.8z"/>
				<path class="st2" d="M21.1,13.8c-1-0.2-2,0.4-2.3,1.4l-0.2,0.6c-0.1,0.3,0.1,0.5,0.4,0.6l0.7,0.2c1.5,0.3,2.9-0.6,3.3-2l0,0
					c0-0.2-0.1-0.3-0.2-0.4L21.1,13.8z"/>
			</g>
		</g>
		
			<linearGradient id="SVGID_1_" gradientUnits="userSpaceOnUse" x1="34.0651" y1="34.4889" x2="47.337" y2="-1.9753" gradientTransform="matrix(1 0 0 -1 0 41.89)">
			<stop  offset="0" style="stop-color:#253B7E"/>
			<stop  offset="1" style="stop-color:#697FC3"/>
		</linearGradient>
		<path class="st3" d="M52.5,41.9H40.7c-1,0-2.1-0.8-2.5-1.8L27.7,11.2c-0.4-1,0.2-1.8,1.2-1.8h11.8c1,0,2.1,0.8,2.5,1.8L53.7,40
			C54,41,53.5,41.9,52.5,41.9z"/>
	</g>
</g>
</svg>
