<?xml version="1.0" encoding="utf-8"?>
<!-- Generator: Adobe Illustrator 26.4.1, SVG Export Plug-In . SVG Version: 6.00 Build 0)  -->
<svg version="1.1" id="uuid-1b4f74e5-405c-4fa2-9832-10712ceeef61"
	 xmlns="http://www.w3.org/2000/svg" xmlns:xlink="http://www.w3.org/1999/xlink" x="0px" y="0px" viewBox="0 0 361.8 42"
	 style="enable-background:new 0 0 361.8 42;" xml:space="preserve">
<style type="text/css">
	.st0{fill:#C9C9CA;}
	.st1{fill:#2B4695;}
	.st2{fill:#3759BE;}
</style>
<g>
	<g>
		<g>
			<path class="st0" d="M24.4,0.2c0.6-0.1,1.3-0.3,1.9-0.1c-0.4,0.6-1.2,0.7-1.9,0.9c-0.7,0.1-1.4,0.3-2.2,0.2c0-0.2,0-0.3,0.2-0.4
				C23,0.4,23.8,0.3,24.4,0.2z"/>
			<path class="st0" d="M19.3,1.6c0.8-0.3,1.5-0.6,2.4-0.5c-0.4,0.5-1,0.8-1.6,1c-0.7,0.2-1.5,0.5-2.2,0.5
				C18.2,2.1,18.7,1.8,19.3,1.6z"/>
			<path class="st0" d="M33.6,2.3c1.2-0.2,2.4-0.1,3.5,0.4c0.4,0.2,1,0.6,0.9,1.2c-0.1,0.4-0.5,0.5-0.8,0.6c-1,0.2-2.1,0.1-3.1-0.2
				c-0.6-0.2-1.2-0.5-1.4-1.2C32.7,2.6,33.2,2.4,33.6,2.3z"/>
			<path class="st0" d="M16,2.9c0.5-0.2,1-0.4,1.5-0.5c-0.9,0.9-2.1,1.5-3.4,1.8C14.6,3.6,15.3,3.3,16,2.9z"/>
			<path class="st0" d="M13.7,4.8c0.7-0.4,1.4-0.9,2.2-0.8c-0.4,0.7-1.1,1.2-1.8,1.6c-0.6,0.3-1.2,0.7-1.9,0.6
				C12.6,5.6,13.2,5.2,13.7,4.8z"/>
			<path class="st0" d="M28,5.3C29,5,30,5,31,5.4c0.6,0.2,1.2,0.7,1.3,1.4c0,0.8-0.6,1.4-1.2,1.7C30.1,9,29,9.2,28,9
				c-0.6-0.1-1.3-0.3-1.7-0.7c-0.4-0.4-0.5-1-0.2-1.5C26.3,5.9,27.2,5.5,28,5.3z"/>
			<path class="st0" d="M34.7,5.3c1-0.2,2-0.1,3,0.3c0.7,0.3,1.3,0.8,1.6,1.5c0.2,0.6-0.2,1.2-0.7,1.5c-1.2,0.7-2.8,0.4-4-0.2
				c-0.7-0.3-1.3-0.9-1.4-1.7C33.1,5.9,34,5.4,34.7,5.3z"/>
			<path class="st0" d="M10.3,6.8c0.6-0.4,1.1-0.9,1.9-1.1c-0.3,0.6-0.8,1-1.3,1.4s-1,0.8-1.7,1C9.3,7.6,9.8,7.2,10.3,6.8z"/>
			<path class="st0" d="M21.5,6.1c0.7-0.2,1.6-0.2,2.3,0c0.5,0.2,0.8,0.6,0.7,1.1c-0.2,0.9-1,1.6-1.8,2c-1,0.5-2,0.8-3.1,0.6
				c-0.5-0.1-1-0.4-1.1-0.9s0.2-1,0.5-1.3C19.7,6.8,20.6,6.3,21.5,6.1z"/>
			<path class="st0" d="M41.1,6.1c0.6-0.2,1.3,0,1.9,0.2c0.9,0.4,1.8,1,2.2,1.9c0.3,0.4,0.2,1-0.2,1.4c-0.5,0.5-1.3,0.5-2,0.3
				c-1.2-0.4-2.5-1.2-2.9-2.5C40,6.7,40.6,6.2,41.1,6.1z"/>
			<path class="st0" d="M9.5,8.3c0.3-0.2,0.8-0.2,0.5,0.3c-0.5,0.9-1.2,1.6-2,2.2c-0.3,0.2-0.5,0.5-0.9,0.4c0-0.5,0.4-1,0.7-1.4
				C8.3,9.3,8.8,8.7,9.5,8.3z"/>
			<path class="st0" d="M27.8,10c1.1-0.4,2.3-0.2,3.3,0.4c0.7,0.4,1.2,1.2,1.3,2c0,1.2-0.9,2.2-2,2.7c-1.5,0.8-3.5,0.6-4.7-0.6
				c-0.6-0.6-0.8-1.6-0.5-2.3C25.6,11,26.7,10.3,27.8,10z"/>
			<path class="st0" d="M35.5,10.1c1.9-0.6,4.3,0.7,4.7,2.7c0.2,1.7-1.7,2.9-3.3,2.7c-1.5-0.2-3.1-1.3-3.3-2.9
				C33.4,11.4,34.4,10.4,35.5,10.1z"/>
			<path class="st0" d="M5.8,11.2c0.4-0.5,0.8-0.9,1.4-1.2c-0.1,0.6-0.5,1.1-0.8,1.6c-0.5,0.6-0.9,1.2-1.6,1.5
				C4.8,12.4,5.3,11.8,5.8,11.2z"/>
			<path class="st0" d="M20.3,10.8c1.1-0.3,2.6-0.1,3.2,1c0.5,0.9,0,1.9-0.5,2.7c-0.7,0.9-1.7,1.5-2.8,1.8c-0.8,0.2-1.8,0.1-2.5-0.4
				c-0.7-0.5-0.9-1.5-0.6-2.3C17.7,12.1,18.9,11.2,20.3,10.8z"/>
			<path class="st0" d="M41.9,11.2c0.5-0.2,1.1-0.2,1.6,0c1.4,0.5,2.5,1.6,2.8,3.1c0.2,1.2-0.8,2.4-2,2.3c-1.7-0.2-3.1-1.5-3.5-3.1
				C40.6,12.6,41,11.5,41.9,11.2z"/>
			<path class="st0" d="M5.8,13c0.5-0.6,1-1.3,1.7-1.6c0.5,0,0.4,0.6,0.3,0.8c-0.3,0.8-0.9,1.6-1.5,2.3C6,14.9,5.5,15.3,5,15.3
				C4.8,14.5,5.4,13.7,5.8,13z"/>
			<path class="st0" d="M3.5,15c0.4-0.7,0.9-1.3,1.6-1.7c0,0.8-0.4,1.4-0.8,2S3.5,16.6,2.8,17C2.8,16.2,3.2,15.6,3.5,15z"/>
			<path class="st0" d="M5.2,15.9c0.3-0.2,0.6,0,0.6,0.3c0.1,1.1-0.5,2.2-1,3.1c-0.4,0.5-0.8,1.1-1.4,1.1c-0.4-0.3-0.2-1-0.1-1.4
				C3.5,17.8,4.1,16.5,5.2,15.9z"/>
			<path class="st0" d="M35.5,17.2c2.2-0.6,4.7,1.6,4.3,3.8c-0.3,1.9-2.4,3.4-4.2,2.7c-1.5-0.5-2.6-1.9-2.6-3.5
				C33,18.8,34.1,17.5,35.5,17.2z"/>
			<path class="st0" d="M2.5,17.7c0.2-0.2,0.4-0.3,0.6-0.4c0.1,0.8-0.2,1.6-0.5,2.4c-0.3,0.7-0.6,1.4-1.3,1.9
				c-0.3-0.4-0.1-0.9-0.1-1.3C1.6,19.4,1.9,18.4,2.5,17.7z"/>
			<path class="st0" d="M3.2,21.3C3.5,21,4,21.2,4.1,21.6c0.2,1.1-0.1,2.2-0.4,3.3c-0.2,0.6-0.6,1.4-1.3,1.5c-0.7-0.2-0.7-1-0.6-1.5
				C1.9,23.6,2.2,22.2,3.2,21.3z"/>
			<path class="st0" d="M1.1,22.4c0.1-0.2,0.5-0.3,0.5,0c0.2,0.8-0.1,1.5-0.2,2.3c-0.2,0.8-0.3,1.8-1.1,2.1
				c-0.5-0.5-0.3-1.2-0.2-1.9C0.3,24,0.4,23.1,1.1,22.4z"/>
			<path class="st0" d="M5.3,27.2c0.5-0.3,1.1-0.2,1.5,0.2c0.5,0.5,0.7,1.2,0.8,1.8c0.2,1,0,2-0.4,2.9c-0.3,0.6-0.8,1.1-1.5,1.1
				S4.5,32.6,4.3,32c-0.5-1.2-0.4-2.5,0.1-3.7C4.6,27.9,4.8,27.5,5.3,27.2z"/>
			<path class="st0" d="M2.1,27.4C2.5,27.1,3,27.6,3.2,28c0.3,1,0.3,2,0.2,3c-0.1,0.6-0.2,1.3-0.8,1.7c-0.5,0.3-0.9-0.2-1.1-0.6
				c-0.4-0.9-0.3-1.8-0.2-2.8C1.4,28.6,1.5,27.9,2.1,27.4z"/>
			<path class="st0" d="M5.2,34.4c0.5-0.2,0.9,0.1,1.3,0.3c0.7,0.6,1.1,1.5,1.3,2.3C8,37.9,8,38.8,7.6,39.5
				c-0.3,0.5-0.9,0.7-1.4,0.4c-0.9-0.4-1.4-1.4-1.7-2.3c-0.2-0.8-0.3-1.6,0-2.4C4.6,34.9,4.9,34.5,5.2,34.4z"/>
			<path class="st0" d="M10.3,35c0.7-0.3,1.4-0.1,2,0.3c1,0.7,1.7,1.9,1.9,3.1c0.1,1.1-0.4,2.4-1.5,2.8c-1,0.4-2-0.3-2.7-1
				c-0.8-0.9-1.3-2.2-1-3.4C9.1,36,9.5,35.3,10.3,35z"/>
			<path class="st0" d="M18.6,35.5c2.3-0.7,4.9,1.6,4.5,4c-0.3,1.8-2.3,3-4,2.3c-1.6-0.5-2.8-2.1-2.6-3.8
				C16.5,36.9,17.4,35.8,18.6,35.5z"/>
		</g>
		<g>
			<path class="st1" d="M27.5,0.8c0.8-0.2,1.7-0.3,2.6-0.3c0.5,0,1.2,0.1,1.4,0.6c-0.2,0.6-0.8,0.7-1.3,0.7
				c-0.9,0.1-1.9,0.2-2.8,0.1c-0.3,0-0.6-0.3-0.8-0.5C26.9,1.1,27.2,0.8,27.5,0.8z"/>
			<path class="st1" d="M24.6,1.1c0.4,0,0.9-0.1,1.1,0.2s-0.1,0.5-0.3,0.6c-0.7,0.5-1.5,0.6-2.3,0.8c-0.6,0.1-1.2,0.3-1.8,0
				c-0.3-0.1,0-0.4,0.1-0.6C22.4,1.4,23.6,1.3,24.6,1.1z"/>
			<path class="st1" d="M28.5,2.3c0.9-0.1,1.8-0.2,2.7,0.1c0.4,0.2,1,0.6,0.7,1.2c-0.3,0.5-0.9,0.7-1.5,0.9c-1.1,0.2-2.2,0.3-3.3,0
				c-0.4-0.1-0.9-0.6-0.7-1.1C26.8,2.6,27.7,2.4,28.5,2.3z"/>
			<path class="st1" d="M18.4,2.7c0.7-0.2,1.4-0.5,2.1-0.4c-0.1,0.5-0.6,0.8-1.1,1.1c-1,0.5-2,0.9-3.1,0.9
				C16.6,3.5,17.6,3.1,18.4,2.7z"/>
			<path class="st1" d="M22.8,3.1c0.7-0.1,1.4-0.3,2.1,0c0.3,0.1,0.5,0.5,0.3,0.8c-0.5,0.8-1.5,1.2-2.3,1.4s-1.7,0.4-2.6,0.1
				c-0.4-0.1-0.4-0.6-0.1-0.9C20.8,3.7,21.8,3.3,22.8,3.1z"/>
			<path class="st1" d="M17.6,4.5c0.4-0.1,0.9-0.2,1.3-0.1c0.3,0.1,0.2,0.6,0,0.8c-0.7,0.9-1.8,1.5-2.8,1.9c-0.5,0.1-1.1,0.3-1.5,0
				c-0.1-0.3,0.1-0.6,0.3-0.9C15.6,5.3,16.6,4.8,17.6,4.5z"/>
			<path class="st1" d="M11.5,7.4c0.7-0.6,1.6-1.3,2.6-1.2C14,6.5,13.9,6.8,13.8,7c-0.7,0.8-1.5,1.5-2.4,2c-0.3,0.2-0.7,0.2-1.1,0.2
				C10.3,8.4,10.9,7.9,11.5,7.4z"/>
			<path class="st1" d="M15.7,7.6c0.5-0.1,1.1-0.2,1.5,0.1c0.3,0.2,0.3,0.7,0.1,1.1c-0.6,1.2-1.8,2.1-3,2.6
				c-0.5,0.2-1.1,0.3-1.5-0.1c-0.4-0.3-0.3-0.9-0.1-1.3C13.4,8.9,14.5,8,15.7,7.6z"/>
			<path class="st1" d="M11.1,9.5c0.5-0.3,1.1,0.3,0.8,0.8c-0.5,1.2-1.5,2.3-2.7,2.9c-0.3,0.2-0.9,0.3-1.1-0.1
				C8,12.5,8.3,12,8.7,11.5C9.3,10.7,10.1,9.9,11.1,9.5z"/>
			<path class="st1" d="M13.7,12.3c0.7-0.3,1.7-0.1,2,0.7c0.4,0.8,0,1.7-0.5,2.4c-0.6,1-1.5,1.8-2.7,2.2c-0.6,0.2-1.3,0.1-1.7-0.4
				c-0.4-0.6-0.4-1.4-0.1-2C11.3,13.9,12.4,12.8,13.7,12.3z"/>
			<path class="st1" d="M8.9,14c0.3-0.1,0.7,0,0.9,0.3c0.3,0.6,0.1,1.3-0.2,1.9c-0.5,1.1-1.2,2.2-2.3,2.7c-0.4,0.2-0.9,0.2-1.1-0.3
				c-0.3-0.9,0-1.8,0.4-2.6C7.1,15.3,7.9,14.4,8.9,14z"/>
			<path class="st1" d="M28,16.8c1.9-0.2,4,1.2,4.2,3.2c0.1,2.1-1.7,4-3.8,4.3c-1.6,0.2-3.2-0.7-3.9-2.1c-0.5-1-0.4-2.2,0.1-3.2
				C25.3,17.8,26.6,17,28,16.8z"/>
			<path class="st1" d="M18.9,17.7c1.3-0.5,2.8,0.1,3.5,1.2C23,19.8,23,21,22.6,22c-0.7,1.7-2.4,3.1-4.2,2.9
				c-1.6-0.1-2.8-1.8-2.6-3.4C15.9,19.7,17.2,18.2,18.9,17.7z"/>
			<path class="st1" d="M12,18.7c0.7-0.2,1.5,0,1.9,0.6c0.6,0.8,0.7,1.9,0.4,2.9c-0.4,1.3-1.3,2.6-2.7,3.1c-0.8,0.3-1.7,0-2.1-0.7
				c-0.6-0.9-0.6-2-0.3-3C9.7,20.4,10.7,19.2,12,18.7z"/>
			<path class="st1" d="M6.7,20.1c0.4-0.2,1-0.1,1.3,0.3c0.4,0.7,0.4,1.6,0.2,2.3c-0.2,1-0.6,2.1-1.4,2.8C6.4,25.8,6,26.1,5.5,26
				s-0.7-0.6-0.8-1c-0.3-1.1,0-2.2,0.5-3.2C5.5,21.1,6,20.4,6.7,20.1z"/>
			<path class="st1" d="M26.6,25.8c2-0.4,4.1,1.3,4.2,3.3c0,2.1-1.8,4-3.9,4.1c-1.4,0-2.8-0.9-3.3-2.2c-0.5-1-0.4-2.2,0.2-3.2
				C24.3,26.8,25.4,26.1,26.6,25.8z"/>
			<path class="st1" d="M18.1,26.4c1.7-0.6,3.6,0.8,4.1,2.5c0.7,2.2-1.2,4.8-3.5,4.9c-1.4,0-2.6-1.1-3.1-2.3
				C14.8,29.5,16.1,27,18.1,26.4z"/>
			<path class="st1" d="M10.6,26.7c0.8-0.4,1.8,0.1,2.4,0.7c1,1.2,1.2,3,0.5,4.4c-0.4,1-1.3,1.8-2.5,1.8c-0.8-0.1-1.6-0.7-2-1.4
				c-0.5-1-0.7-2.1-0.4-3.2C8.9,28.1,9.6,27.1,10.6,26.7z"/>
		</g>
	</g>
	<g>
		<g>
			<path class="st2" d="M295.6,2.2l-6.6,37.2h-19.6L262,2.2h13.6c1.6,10.2,2.7,19,3.4,26.1c0.6-7.2,1.3-13.6,2.2-19.1l0.9-6.9
				C282.1,2.2,295.6,2.2,295.6,2.2z"/>
			<path class="st2" d="M326.5,2.2v37.2h-11.3l-6.7-16.9v16.9h-10.8V2.2h10.8l7.2,16.8V2.2H326.5z"/>
			<path class="st2" d="M361.8,18.5H349v-6.2c0-1.8-0.2-3-0.4-3.4c-0.3-0.4-0.9-0.6-1.8-0.6c-1.1,0-1.7,0.3-2,0.8
				c-0.3,0.5-0.4,1.7-0.4,3.5v16.6c0,1.7,0.2,2.9,0.4,3.4s0.9,0.8,1.9,0.8s1.6-0.3,1.9-0.8c0.3-0.5,0.4-1.8,0.4-3.8v-4.5h12.8v1.3
				c0,3.7-0.4,6.3-1.1,7.9c-0.7,1.5-2.3,2.9-4.9,4c-2.5,1.2-5.6,1.7-9.2,1.7c-3.8,0-6.9-0.4-9.3-1.4c-2.4-1-4-2.3-4.9-4.1
				c-0.8-1.7-1.2-4.4-1.2-7.9V15.6c0-2.6,0.1-4.5,0.4-5.7s1-2.5,2.2-3.7c1.3-1.2,2.9-2.2,5-2.8c2.2-0.7,4.7-1,7.5-1
				c3.8,0,6.9,0.5,9.4,1.6c2.4,1.1,4.1,2.3,4.9,4c0.8,1.6,1.2,4,1.2,7.4V18.5L361.8,18.5L361.8,18.5z"/>
		</g>
		<g>
			<path class="st1" d="M81.9,19.3c2.6-0.4,4.3-1.2,5.3-2c0.8-0.8,1.3-2.4,1.3-4.6c0-3.2-0.6-5.6-1.9-7.1s-3-2.4-5-3
				c-2.2-0.4-5.1-0.8-9.2-0.8H59.9v37.7h14.7c5.1,0,8.5-0.2,10.2-0.6c1.6-0.4,2.9-1.3,3.6-2.5c0.7-1.3,1.2-3.1,1.2-5.7v-3.5
				c0-2.4-0.5-4.2-1.6-5.5C86.8,20.6,84.8,19.8,81.9,19.3L81.9,19.3z M72.5,8.4c1.3,0,2,0,2.4,0.2c0.4,0.2,0.8,0.4,1.2,0.9
				c0.3,0.4,0.4,1.3,0.4,2.4c0,2.2-0.1,3.6-0.4,4c-0.3,0.4-1.2,0.7-2.3,0.7h-1.3C72.5,16.7,72.5,8.4,72.5,8.4z M76.6,29.7
				c0,1.5-0.3,2.4-0.7,2.9c-0.4,0.4-1.6,0.6-3.4,0.6V22.7c1.9,0,3.1,0.2,3.5,0.6c0.4,0.3,0.6,1.3,0.6,3
				C76.6,26.2,76.6,29.7,76.6,29.7z"/>
			<path class="st1" d="M121,4.8c-1.2-1.1-2.9-1.7-5-2.2S109.6,2,103.4,2h-9.5v37.6H110c3.1,0,5.4-0.1,6.9-0.4
				c1.5-0.2,2.7-0.6,3.8-1.3c1.1-0.5,1.8-1.5,2.2-2.6c0.4-1.2,0.6-3.4,0.6-6.8V15.3c0-3.6-0.1-5.9-0.4-7.2
				C122.8,6.8,122.2,5.9,121,4.8z M110.8,27.9c0,2.5-0.3,4-0.6,4.6c-0.4,0.5-1.6,0.8-3.4,0.8V8.4c1.4,0,2.3,0.1,3,0.4
				c0.4,0.2,0.8,0.5,0.9,1.1c0.1,0.5,0.2,1.6,0.2,3.3V27.9z"/>
			<path class="st1" d="M160.2,28.6l-1.4-14.1c-0.7-7-1.2-11.1-1.4-12.2h-12.9c-1.9,10.5-3,19-3.4,25.5l-1.3-12.5l-1.3-13h-12.1
				l5.7,37.2h15.5c1.9-9.8,3.1-16.3,3.5-19.5c1.1,7.3,2.4,13.7,3.8,19.5h15.7L176,2.3V2.2h-12.3C162,10.8,160.9,19.6,160.2,28.6
				L160.2,28.6z"/>
			<rect x="178.1" y="2.3" class="st1" width="12.4" height="4.9"/>
			<rect x="178.1" y="8.9" class="st1" width="12.4" height="30.4"/>
			<polygon class="st1" points="207.1,8.9 207.1,9.2 207.1,9.2 			"/>
			<path class="st1" d="M219.7,9.4c-1.4-0.7-3.1-1.1-5.1-1.1c-1.7,0-3.1,0.3-4.4,0.8c-1.3,0.5-2.4,1.4-3.2,2.5l0.2-2.5h-12.2v30.4
				h12V19.1c0-2.3,0.2-3.7,0.4-4.2c0.2-0.5,0.7-0.8,1.6-0.8s1.3,0.2,1.4,0.6c0.2,0.4,0.3,1.7,0.3,3.8v21h12V18.1
				c0-2.7-0.2-4.7-0.5-5.7C221.8,11.2,221,10.3,219.7,9.4z"/>
			<path class="st1" d="M242.2,2.3v8.6c-0.9-0.8-2.2-1.4-3.3-1.9c-1.2-0.4-2.6-0.6-4-0.6c-2,0-3.6,0.4-5,1.1
				c-1.4,0.7-2.3,1.6-2.7,2.6c-0.4,1-0.5,2.7-0.5,5v14.3c0,2.2,0.2,3.8,0.5,4.9c0.4,0.9,1.2,1.9,2.6,2.6c1.3,0.7,3,1.1,4.9,1.1
				c1.4,0,2.7-0.2,4-0.6c1.3-0.4,2.5-1.1,3.6-2.1v2.2h12V2.3H242.2L242.2,2.3z M242.1,30.7c0,1.8-0.1,2.8-0.4,3.2s-0.8,0.6-1.6,0.6
				s-1.1-0.2-1.4-0.5s-0.4-1.2-0.4-2.4V16.7c0-1.2,0.1-2,0.4-2.3c0.3-0.4,0.7-0.5,1.4-0.5c0.7,0,1.2,0.2,1.4,0.5
				c0.3,0.4,0.4,1.1,0.4,2.2L242.1,30.7L242.1,30.7z"/>
		</g>
	</g>
</g>
</svg>
