<?xml version="1.0" encoding="utf-8"?>
<!-- Generator: Adobe Illustrator 26.4.1, SVG Export Plug-In . SVG Version: 6.00 Build 0)  -->
<svg version="1.1" id="Layer_1" xmlns="http://www.w3.org/2000/svg" xmlns:xlink="http://www.w3.org/1999/xlink" x="0px" y="0px"
	 viewBox="0 0 1920 1080" style="enable-background:new 0 0 1920 1080;" xml:space="preserve">
<style type="text/css">
	.st0{fill:#010027;}
	.st1{fill:#E7E9B9;}
	.st2{fill:#01A495;}
	.st3{fill:url(#SVGID_1_);}
	.st4{opacity:0.6;fill:#010027;enable-background:new    ;}
	.st5{opacity:0.4;}
	.st6{opacity:0.4;fill:#010027;enable-background:new    ;}
	.st7{opacity:0.2;fill:url(#SVGID_00000054946012692794917840000001555981905416407219_);enable-background:new    ;}
	.st8{fill:none;stroke:#01A495;stroke-width:16;stroke-miterlimit:10;}
	.st9{display:none;}
	.st10{display:inline;fill:#FFFFFF;}
	.st11{display:inline;fill:#A80030;}
	.st12{fill:#FFFFFF;}
	.st13{opacity:0.7;fill:#01A495;enable-background:new    ;}
	.st14{opacity:0.4;fill:#01A495;enable-background:new    ;}
	.st15{opacity:0.5;}
	.st16{opacity:0.6;}
	.st17{display:none;fill:#FFFFFF;}
	.st18{font-family:'Impact';}
	.st19{font-size:50.6844px;}
</style>
<rect x="-377" y="-494" class="st0" width="2629" height="2100"/>
<g>
	<rect x="838" y="291" class="st1" width="16" height="17"/>
	
		<rect x="484.4" y="551.8" transform="matrix(0.8901 -0.4557 0.4557 0.8901 -137.1904 538.2941)" class="st1" width="1126.7" height="3.6"/>
	<circle class="st2" cx="946" cy="590" r="267.1"/>
	
		<radialGradient id="SVGID_1_" cx="954.1648" cy="475.087" r="355.9749" gradientTransform="matrix(0.7846 0 0 -1.0808 169.8623 1001.4741)" gradientUnits="userSpaceOnUse">
		<stop  offset="0" style="stop-color:#010027;stop-opacity:0"/>
		<stop  offset="0.8533" style="stop-color:#010027;stop-opacity:0.8533"/>
		<stop  offset="1" style="stop-color:#010027"/>
	</radialGradient>
	<rect x="633" y="112" class="st3" width="571" height="752"/>
	
		<rect x="834.9" y="312.9" transform="matrix(0.9546 -0.2979 0.2979 0.9546 -148.8253 281.0311)" class="st0" width="25.3" height="631.8"/>
	
		<rect x="865.9" y="327" transform="matrix(0.9546 -0.2978 0.2978 0.9546 -149.6184 301.0526)" class="st4" width="94.5" height="629"/>
	
		<rect x="839.3" y="339.8" transform="matrix(0.9546 -0.2978 0.2978 0.9546 -151.0716 288.1454)" class="st4" width="61.5" height="600.2"/>
	
		<rect x="660.1" y="397.2" transform="matrix(0.9932 -0.1166 0.1166 0.9932 -66.9289 87.6447)" class="st0" width="111.1" height="437.4"/>
	<polygon class="st4" points="731.2,211.9 1000.3,138.8 1217.7,545.9 870.5,655 	"/>
	<path class="st0" d="M1136.5,621.7l35.6,19.2l-80.1,149.6c-20.1-3.2-38.1-15.7-38.1-15.7L1136.5,621.7z"/>
	<path class="st4" d="M987,667.7c-1.5-70,122.9-179,122.9-179s114.1,114.1,130.5,173.5c18.6,67.5-54,127.9-124,129.4
		C1046.5,793.2,988.5,737.7,987,667.7z"/>
	<g class="st5">
		
			<image style="overflow:visible;enable-background:new    ;" width="98" height="96" xlink:href="8FB8E6476EB095A3.png"  transform="matrix(1 0 0 1 796 249)">
		</image>
	</g>
	<rect x="881" y="431" class="st4" width="33" height="34"/>
	<rect x="921" y="367" class="st4" width="33" height="34"/>
	<circle class="st6" cx="779.9" cy="426.1" r="212.6"/>
	
		<radialGradient id="SVGID_00000096057666796599849780000008714734900948700824_" cx="1086.6915" cy="614.9965" r="356.3109" gradientTransform="matrix(0.865 0 0 -0.9231 113.0118 1118.2032)" gradientUnits="userSpaceOnUse">
		<stop  offset="0" style="stop-color:#FFFFFF"/>
		<stop  offset="0.6613" style="stop-color:#010027"/>
	</radialGradient>
	
		<rect x="738" y="229" style="opacity:0.2;fill:url(#SVGID_00000096057666796599849780000008714734900948700824_);enable-background:new    ;" width="630" height="643"/>
	<path class="st8" d="M1239.4,521.7c1.7,78.1-100,157.6-100,157.6s-140.6-37.2-170-125.6c-29.8-89.7,47.3-168.7,125.4-170.4
		C1173,381.6,1237.7,443.6,1239.4,521.7z"/>
	<circle class="st4" cx="1148.7" cy="344.2" r="95.1"/>
	<polygon class="st0" points="1055.2,500 1182.5,441 1217.5,516.7 1090.3,575.7 	"/>
	
		<rect x="1083.2" y="9.4" transform="matrix(0.9073 -0.4204 0.4204 0.9073 -122.64 532.2045)" class="st0" width="125.6" height="1069.8"/>
	<g class="st9">
		<path class="st10" d="M904.2,960.1c-0.1,0.1-0.1,9.7-0.2,12.2c-0.1,2-0.3,6.4-4.6,6.4c-4.4,0-5.5-5.1-5.9-7.3
			c-0.4-2.5-0.4-4.5-0.4-5.4c0-2.9,0.2-10.9,7-10.9c2,0,3.2,0.6,4.1,1.1L904.2,960.1z M886.8,967.2c0,16.9,9,16.9,10.3,16.9
			c3.7,0,6.1-2,7.1-5.6l0.1,5.3c1.1-0.1,2.3-0.2,4.1-0.2c0.7,0,1.2,0,1.7,0.1c0.5,0,1,0.1,1.5,0.1c-1-1.9-1.7-6.2-1.7-15.6
			c0-9.1,0-24.5,0.8-29.2c-2.2,1-4,1.7-8.1,2c1.6,1.7,1.6,2.6,1.6,10.6c-1.1-0.4-2.6-0.8-5-0.8C888.5,950.9,886.8,960.2,886.8,967.2
			"/>
		<path class="st10" d="M919.3,964.1c0.1-5,1.1-9.4,5.3-9.4c4.7,0,5,5.2,4.9,9.4H919.3z M935.5,964.7c0-7-1.4-13.9-10.3-13.9
			c-12.2,0-12.2,13.6-12.2,16.4c0,12.2,5.5,17,14.6,17c4.1,0,6.1-0.6,7.1-0.9c-0.1-2.2,0.2-3.5,0.6-5.4c-1.3,0.8-2.9,1.8-6.5,1.8
			c-9.4,0-9.5-8.5-9.5-11.5h16L935.5,964.7"/>
		<path class="st10" d="M955,967.3c0,5.6-1,13.1-8,13.1c-1,0-2.2-0.2-2.9-0.4c-0.1-2.2-0.1-5.9-0.1-10.2c0-5.2,0.5-7.9,1-9.2
			c1.3-4.3,4.1-4.3,4.6-4.3C954.1,956.3,955,962.6,955,967.3z M937.8,973.9c0,4.4,0,7-0.7,8.9c2.5,1,5.5,1.5,9.2,1.5
			c2.3,0,9.1,0,12.8-7.5c1.7-3.5,2.3-8.2,2.3-11.7c0-2.2-0.2-6.9-2-9.9c-1.7-2.8-4.4-4.3-7.3-4.3c-5.8,0-7.4,4.8-8.3,7.3
			c0-3.1,0.1-13.7,0.5-19.2c-3.9,1.8-6.3,2.1-8.9,2.3c2.3,1,2.3,4.9,2.3,17.8L937.8,973.9"/>
		<path class="st10" d="M972.9,983.9c-1.2-0.2-2-0.3-3.8-0.3c-1.9,0-3.2,0.1-4.6,0.3c0.6-1.1,0.8-1.7,1-5.6
			c0.2-5.3,0.3-19.6-0.1-22.6c-0.3-2.3-0.8-2.6-1.7-3.2c4.9-0.5,6.3-0.8,8.6-1.9c-0.5,2.6-0.5,4-0.5,8
			C971.6,979.2,971.6,981.4,972.9,983.9"/>
		<path class="st10" d="M992.1,966.9c-0.1,3.8-0.2,6.4-1.2,8.5c-1.3,2.7-3.4,3.5-4.9,3.5c-3.6,0-4.4-3-4.4-5.9c0-5.6,5-6.1,7.3-6.1
			H992.1z M975.6,974.3c0,3.8,1.1,7.6,4.5,9.2c1.5,0.7,3,0.7,3.5,0.7c5.5,0,7.4-4.1,8.5-6.6c-0.1,2.6,0,4.3,0.2,6.4
			c1.1-0.1,2.2-0.2,4-0.2c1,0,2,0.1,3,0.2c-0.7-1-1-1.6-1.2-4c-0.1-2.3-0.1-4.6-0.1-7.7l0.1-12.2c0-4.6-1.2-9.1-10.2-9.1
			c-5.9,0-9.4,1.8-11.2,2.7c0.7,1.3,1.3,2.5,1.9,5c2.3-2,5.4-3.1,8.5-3.1c5,0,5,3.3,5,8c-1.1-0.1-2.1-0.2-3.7-0.2
			C980.6,963.3,975.6,966.2,975.6,974.3"/>
		<path class="st10" d="M1026.6,977.9c0.1,2,0.1,4.2,0.9,5.9c-1.3-0.1-2.1-0.3-4.6-0.3c-1.4,0-2.2,0.1-3.4,0.3
			c0.2-0.8,0.4-1.1,0.5-2.1c0.2-1.4,0.3-6,0.3-7.6v-6.5c0-2.8,0-6.9-0.2-8.3c-0.1-1-0.4-3.8-3.9-3.8c-3.4,0-4.6,2.5-5,4.6
			c-0.5,2.1-0.5,4.4-0.5,13.3c0.1,7.7,0.1,8.4,0.7,10.5c-1-0.1-2.3-0.2-4.1-0.2c-1.4,0-2.4,0.1-3.6,0.2c0.4-1,0.7-1.4,0.8-4.8
			c0.1-3.3,0.4-19.5-0.2-23.3c-0.3-2.3-0.9-2.9-1.6-3.5c4.9-0.2,6.4-1,7.9-1.8v6.4c0.7-1.9,2.2-6,8.2-6c7.5,0,7.6,5.5,7.6,9.1
			L1026.6,977.9"/>
		<path class="st11" d="M973.4,942l-5,5l-5-5l5-5L973.4,942"/>
	</g>
	<g>
		<path class="st12" d="M1122.2,532.1c-2.6,0,0.5,1.3,3.8,1.8c0.9-0.7,1.8-1.5,2.5-2.2C1126.5,532.3,1124.4,532.3,1122.2,532.1"/>
		<path class="st12" d="M1136,528.7c1.5-2.1,2.7-4.4,3.1-6.8c-0.3,1.7-1.3,3.2-2.1,4.7c-4.8,3-0.5-1.8,0-3.6
			C1131.8,529.5,1136.2,526.9,1136,528.7"/>
		<path class="st12" d="M1141.1,515.4c0.3-4.6-0.9-3.2-1.3-1.4C1140.3,514.3,1140.7,517.3,1141.1,515.4"/>
		<path class="st12" d="M1112.5,452c1.4,0.2,3,0.4,2.7,0.8C1116.7,452.5,1117,452.2,1112.5,452"/>
		<path class="st12" d="M1115.2,452.8l-1,0.2l0.9-0.1L1115.2,452.8"/>
		<path class="st12" d="M1158.1,517.2c0.2,4.2-1.2,6.2-2.5,9.8l-2.2,1.1c-1.8,3.5,0.2,2.2-1.1,5.1c-2.8,2.5-8.6,7.9-10.5,8.4
			c-1.4,0,0.9-1.6,1.2-2.2c-3.8,2.6-3.1,3.9-8.9,5.5l-0.2-0.4c-14.4,6.8-34.3-6.6-34-24.9c-0.2,1.2-0.4,0.9-0.8,1.3
			c-0.7-9.4,4.3-18.8,12.9-22.7c8.4-4.1,18.2-2.4,24.2,3.2c-3.3-4.3-9.9-8.9-17.6-8.5c-7.6,0.1-14.8,5-17.1,10.2
			c-3.9,2.5-4.4,9.5-6.1,10.8c-2.3,16.8,4.3,24.1,15.5,32.6c1.8,1.2,0.5,1.4,0.7,2.3c-3.7-1.7-7.1-4.4-9.9-7.6
			c1.5,2.2,3.1,4.3,5.1,5.9c-3.5-1.2-8.2-8.5-9.5-8.8c6,10.8,24.4,18.9,34.1,14.9c-4.5,0.2-10.1,0.1-15.1-1.8
			c-2.1-1.1-5-3.3-4.5-3.7c13.2,4.9,26.8,3.7,38.1-5.4c2.9-2.3,6.1-6.1,7-6.1c-1.4,2.1,0.2,1-0.8,2.8c2.9-4.7-1.3-1.9,3-8l1.6,2.2
			c-0.6-3.9,4.8-8.6,4.3-14.7c1.2-1.9,1.4,2,0.1,6.3c1.8-4.8,0.5-5.5,0.9-9.5c0.5,1.3,1.2,2.7,1.5,4.1c-1.2-4.6,1.2-7.8,1.8-10.4
			c-0.6-0.3-1.8,2-2.1-3.4c0-2.4,0.7-1.2,0.9-1.8c-0.5-0.3-1.7-2.1-2.4-5.6c0.5-0.8,1.4,2.1,2.2,2.2c-0.5-2.8-1.3-4.9-1.3-7
			c-2.1-4.5-0.8,0.6-2.5-1.9c-2.3-7.1,1.9-1.6,2.2-4.9c3.4,5,5.4,12.7,6.3,15.9c-0.7-3.9-1.8-7.7-3.2-11.4c1.1,0.4-1.7-8,1.4-2.4
			c-3.3-12-13.9-23.2-23.7-28.4c1.2,1.1,2.7,2.5,2.2,2.7c-4.9-2.9-4-3.1-4.7-4.4c-4-1.6-4.2,0.1-6.9,0c-7.5-4-8.9-3.6-15.8-6
			l0.3,1.5c-5-1.7-5.8,0.6-11.2,0c-0.3-0.3,1.7-0.9,3.4-1.2c-4.8,0.6-4.6-0.9-9.3,0.2c1.2-0.8,2.4-1.4,3.6-2
			c-3.9,0.2-9.3,2.3-7.7,0.4c-6.4,2.9-17.7,6.9-24.1,12.8l-0.2-1.3c-2.9,3.5-12.7,10.5-13.5,15l-0.8,0.2c-1.5,2.6-2.5,5.5-3.7,8.1
			c-2,3.4-2.9,1.3-2.6,1.8c-3.9,7.9-5.8,14.6-7.5,20c1.2,1.8,0,10.7,0.5,17.9c-2,35.4,24.8,69.8,54.2,77.7
			c4.3,1.5,10.7,1.5,16.1,1.6c-6.4-1.8-7.2-1-13.5-3.1c-4.5-2.1-5.5-4.5-8.7-7.3l1.3,2.2c-6.3-2.2-3.6-2.7-8.7-4.4l1.3-1.8
			c-2-0.2-5.4-3.4-6.3-5.2l-2.2,0.1c-2.7-3.3-4.1-5.7-4-7.5l-0.7,1.3c-0.8-1.4-9.8-12.3-5.1-9.8c-0.9-0.8-2-1.3-3.3-3.6l0.9-1.1
			c-2.2-2.9-4.1-6.6-4-7.8c1.2,1.6,2,1.9,2.9,2.2c-5.7-14.1-6-0.8-10.3-14.3l0.9-0.1c-0.7-1.1-1.1-2.2-1.7-3.3l0.4-3.9
			c-4.1-4.7-1.1-20.1-0.6-28.5c0.4-3.4,3.4-7.1,5.7-12.8l-1.4-0.2c2.7-4.6,15.2-18.6,21-17.9c2.8-3.5-0.6,0-1.1-0.9
			c6.2-6.4,8.1-4.5,12.3-5.7c4.5-2.7-3.9,1-1.7-1c7.8-2,5.5-4.5,15.6-5.5c1.1,0.6-2.5,0.9-3.4,1.7c6.5-3.2,20.5-2.4,29.6,1.8
			c10.5,4.9,22.4,19.5,22.9,33.2l0.5,0.1c-0.3,5.5,0.8,11.8-1.1,17.5L1158.1,517.2"/>
		<path class="st12" d="M1094.1,535.7l-0.4,1.8c1.7,2.3,3,4.8,5.2,6.6C1097.4,541,1096.2,539.8,1094.1,535.7"/>
		<path class="st12" d="M1098.1,535.5c-0.9-1-1.4-2.2-2-3.4c0.6,2.1,1.7,3.9,2.8,5.7L1098.1,535.5"/>
		<path class="st12" d="M1168.9,520.1l-0.4,1c-0.7,4.9-2.2,9.8-4.5,14.3C1166.6,530.6,1168.2,525.4,1168.9,520.1"/>
		<path class="st12" d="M1113,450.8c1.7-0.6,4.3-0.4,6.1-0.8c-2.4,0.2-4.8,0.3-7.2,0.6L1113,450.8"/>
		<path class="st12" d="M1051.8,483.3c0.4,3.7-2.8,5.2,0.7,2.7C1054.4,481.8,1051.8,484.8,1051.8,483.3"/>
		<path class="st12" d="M1047.7,500.5c0.8-2.5,1-4,1.3-5.4C1046.7,497.9,1047.9,498.6,1047.7,500.5"/>
	</g>
	<rect x="915" y="307" class="st13" width="22" height="21"/>
	<rect x="859" y="379" class="st14" width="32" height="34"/>
	<polygon class="st13" points="911.5,262.1 882.7,258.6 885,231.1 913.8,234.5 	"/>
	<rect x="1422" y="313" class="st0" width="28" height="70"/>
	<rect x="1469" y="291" class="st0" width="28" height="90"/>
	<rect x="1535" y="205" class="st0" width="29" height="215"/>
	<rect x="1360" y="339" class="st0" width="29" height="70"/>
	<g class="st15">
		
			<image style="overflow:visible;enable-background:new    ;" width="105" height="106" xlink:href="8FB8E6476EB095A1.png"  transform="matrix(1 0 0 1 829 336)">
		</image>
	</g>
	<g class="st16">
		
			<image style="overflow:visible;enable-background:new    ;" width="97" height="100" xlink:href="8FB8E6476EB095A7.png"  transform="matrix(1 0 0 1 878 260)">
		</image>
	</g>
	<g class="st5">
		
			<image style="overflow:visible;enable-background:new    ;" width="105" height="103" xlink:href="8FB8E6476EB095A0.png"  transform="matrix(1 0 0 1 851 187)">
		</image>
	</g>
</g>
<text transform="matrix(1.2985 0 0 1 720.4019 979.1312)" class="st17 st18 st19">BD-Wind Desktop</text>
<g>
	<path class="st12" d="M723.1,939.1h13.5c4.3,0,7.5,0.3,9.7,0.8c2.2,0.5,4,1.5,5.3,3.1c1.3,1.6,2,4.1,2,7.5c0,2.3-0.5,4-1.4,4.9
		c-1,0.9-2.8,1.6-5.6,2.1c3.1,0.5,5.2,1.4,6.4,2.7c1.1,1.3,1.7,3.2,1.7,5.8v3.7c0,2.7-0.4,4.7-1.2,6c-0.8,1.3-2.1,2.2-3.8,2.7
		c-1.8,0.5-5.4,0.7-10.8,0.7h-15.6V939.1z M736.6,945.9v8.9c0.6,0,1,0,1.3,0c1.3,0,2.2-0.3,2.5-0.8c0.4-0.5,0.5-1.9,0.5-4.3
		c0-1.3-0.2-2.1-0.5-2.6c-0.3-0.5-0.7-0.8-1.2-1S738,945.9,736.6,945.9z M736.6,961.1v11.2c1.9,0,3.1-0.3,3.6-0.7s0.8-1.4,0.8-3
		v-3.7c0-1.7-0.2-2.8-0.7-3.1C739.9,961.3,738.6,961.1,736.6,961.1z"/>
	<path class="st12" d="M759.4,939.1h10.1c6.5,0,11,0.2,13.3,0.7c2.3,0.5,4.1,1.2,5.3,2.3c1.2,1.1,1.9,2.2,2.2,3.5
		c0.3,1.3,0.4,3.8,0.4,7.6v14c0,3.6-0.2,6-0.7,7.2c-0.4,1.2-1.2,2.2-2.3,2.8c-1.1,0.7-2.4,1.2-4,1.4c-1.6,0.3-4,0.4-7.3,0.4h-17.1
		V939.1z M773,945.9v26.4c1.9,0,3.1-0.3,3.6-0.9c0.4-0.6,0.7-2.2,0.7-4.9v-15.6c0-1.8-0.1-3-0.2-3.5c-0.1-0.5-0.5-0.9-1-1.1
		C775.5,946,774.5,945.9,773,945.9z"/>
	<path class="st12" d="M811.3,959.3v6.9h-17.1v-6.9H811.3z"/>
	<path class="st12" d="M866.1,939.1l-6,40.1h-16.9c-1.5-6.2-2.9-13.2-4.1-21c-0.5,3.4-1.8,10.4-3.8,21h-16.8l-6.1-40.1h13.1l1.4,14
		l1.4,13.5c0.5-7,1.7-16.2,3.7-27.5h14c0.2,1.2,0.7,5.6,1.5,13.2l1.5,15.2c0.8-9.7,2-19.2,3.8-28.5H866.1z"/>
	<path class="st12" d="M881.8,939.1v5.2h-13.4v-5.2H881.8z M881.8,946.3v32.8h-13.4v-32.8H881.8z"/>
	<path class="st12" d="M899.7,946.3l-0.2,3c0.9-1.2,2.1-2.1,3.5-2.7c1.4-0.6,2.9-0.9,4.7-0.9c2.2,0,4,0.4,5.5,1.2
		c1.4,0.8,2.3,1.8,2.7,3.1c0.4,1.2,0.6,3.3,0.6,6.2v23h-13v-22.7c0-2.3-0.1-3.6-0.3-4.1c-0.2-0.5-0.7-0.7-1.6-0.7
		c-0.9,0-1.5,0.3-1.7,0.9c-0.2,0.6-0.4,2.1-0.4,4.6v22.2h-13v-32.8H899.7z"/>
	<path class="st12" d="M950.4,939.1v40.1h-13v-2.4c-1.2,1-2.5,1.7-3.9,2.2c-1.4,0.5-2.8,0.7-4.3,0.7c-2,0-3.8-0.4-5.2-1.2
		c-1.5-0.8-2.4-1.8-2.8-2.8c-0.4-1.1-0.6-2.8-0.6-5.2v-15.4c0-2.5,0.2-4.3,0.6-5.4c0.4-1.1,1.4-2,2.9-2.8s3.3-1.2,5.4-1.2
		c1.6,0,3.1,0.2,4.4,0.7s2.6,1.1,3.6,2v-9.3H950.4z M937.4,954.6c0-1.2-0.1-2-0.4-2.4c-0.3-0.4-0.8-0.6-1.6-0.6
		c-0.8,0-1.3,0.2-1.6,0.6c-0.3,0.4-0.4,1.2-0.4,2.5v16.1c0,1.3,0.1,2.2,0.4,2.6c0.3,0.4,0.7,0.6,1.5,0.6c0.8,0,1.4-0.2,1.7-0.7
		c0.3-0.5,0.4-1.6,0.4-3.5V954.6z"/>
	<path class="st12" d="M967,939.1h10.1c6.5,0,11,0.2,13.3,0.7c2.3,0.5,4.1,1.2,5.3,2.3c1.2,1.1,1.9,2.2,2.2,3.5
		c0.3,1.3,0.5,3.8,0.5,7.6v14c0,3.6-0.2,6-0.7,7.2c-0.4,1.2-1.2,2.2-2.3,2.8c-1.1,0.7-2.4,1.2-4,1.4c-1.6,0.3-4,0.4-7.3,0.4H967
		V939.1z M980.6,945.9v26.4c1.9,0,3.1-0.3,3.6-0.9c0.5-0.6,0.7-2.2,0.7-4.9v-15.6c0-1.8-0.1-3-0.2-3.5c-0.2-0.5-0.5-0.9-1-1.1
		C983.1,946,982,945.9,980.6,945.9z"/>
	<path class="st12" d="M1032.4,963.3h-16.8v7.1c0,1.5,0.1,2.4,0.4,2.9s0.8,0.6,1.6,0.6c1,0,1.6-0.3,2-0.9c0.3-0.6,0.5-1.7,0.5-3.3
		v-4.3h12.3v2.4c0,2-0.2,3.6-0.5,4.7c-0.3,1.1-1.1,2.3-2.3,3.5s-2.8,2.2-4.6,2.8c-1.9,0.6-4.2,0.9-7.1,0.9c-2.7,0-5.2-0.3-7.3-0.9
		c-2.1-0.6-3.7-1.4-4.9-2.5c-1.2-1.1-2-2.2-2.4-3.5c-0.4-1.3-0.7-3.1-0.7-5.6v-9.6c0-2.9,0.5-5.1,1.5-6.8s2.7-2.9,4.9-3.8
		c2.3-0.9,4.9-1.3,7.9-1.3c3.6,0,6.6,0.5,9,1.6c2.4,1.1,4,2.5,5,4.2c1,1.8,1.4,4.2,1.4,7.4V963.3z M1019.4,957.9v-2.4
		c0-1.7-0.1-2.8-0.4-3.3c-0.2-0.5-0.7-0.7-1.4-0.7c-0.9,0-1.5,0.2-1.7,0.6c-0.2,0.4-0.3,1.6-0.3,3.4v2.4H1019.4z"/>
	<path class="st12" d="M1063.2,956.8h-11.5V955c0-1.5-0.1-2.5-0.3-2.9s-0.8-0.6-1.7-0.6c-0.7,0-1.3,0.2-1.6,0.6s-0.5,0.9-0.5,1.7
		c0,1,0.1,1.7,0.3,2.2c0.2,0.5,0.7,1,1.6,1.5c0.9,0.6,2.8,1.4,5.6,2.5c3.8,1.4,6.2,2.8,7.4,4c1.2,1.3,1.8,3.1,1.8,5.5
		c0,2.7-0.4,4.7-1.3,6.1c-0.9,1.4-2.4,2.4-4.5,3.1c-2.1,0.7-4.7,1.1-7.6,1.1c-3.3,0-6.1-0.4-8.5-1.2c-2.3-0.8-4-1.9-4.8-3.2
		c-0.9-1.4-1.3-3.4-1.3-6.1v-1.6h11.5v2.1c0,1.8,0.1,2.9,0.4,3.4s0.9,0.8,1.7,0.8c0.9,0,1.6-0.2,1.9-0.5c0.4-0.4,0.5-1.1,0.5-2.2
		c0-1.6-0.2-2.5-0.7-2.9c-0.5-0.4-3-1.6-7.6-3.5c-3.8-1.6-6.1-3.1-7-4.5c-0.8-1.3-1.3-2.9-1.3-4.8c0-2.6,0.5-4.6,1.3-5.8
		c0.9-1.2,2.4-2.2,4.6-2.9c2.2-0.7,4.7-1,7.5-1c2.8,0,5.2,0.3,7.2,0.8c2,0.6,3.5,1.3,4.6,2.2c1.1,0.9,1.7,1.7,1.9,2.5
		c0.2,0.8,0.3,2,0.3,3.6V956.8z"/>
	<path class="st12" d="M1095.6,946.3l-5.3,13.1l6.8,19.8h-12.5l-4-14.3l0,14.3h-13v-40.1h13l0,16.8l4-9.6H1095.6z"/>
	<path class="st12" d="M1112.8,941.9v5.2h3.5v5.2h-3.5v17.6c0,2.2,0.1,3.4,0.4,3.6c0.3,0.2,1.5,0.4,3.6,0.4v5.3h-5.2
		c-3,0-5.1-0.1-6.3-0.3s-2.4-0.6-3.3-1.3c-1-0.7-1.6-1.5-1.8-2.4s-0.4-3-0.4-6.2v-16.7h-2.8v-5.2h2.8v-5.2H1112.8z"/>
	<path class="st12" d="M1148.5,957.8v8c0,3-0.2,5.1-0.6,6.5c-0.4,1.4-1.2,2.7-2.5,3.9c-1.3,1.2-2.9,2.1-4.9,2.6s-4.3,0.9-6.8,0.9
		c-2.9,0-5.3-0.2-7.3-0.7c-2-0.5-3.5-1.2-4.6-2.2c-1.1-1-1.9-2.2-2.4-3.6c-0.5-1.4-0.7-3.5-0.7-6.3v-8.4c0-3.1,0.4-5.4,1.3-7.2
		c0.9-1.7,2.4-3.1,4.6-4.1c2.2-1,5.1-1.6,8.5-1.6c2.9,0,5.4,0.3,7.5,1s3.7,1.5,4.8,2.6s1.9,2.2,2.3,3.3
		C1148.3,953.8,1148.5,955.5,1148.5,957.8z M1135.6,955.3c0-1.7-0.1-2.7-0.4-3.2c-0.2-0.4-0.7-0.7-1.5-0.7s-1.3,0.2-1.5,0.7
		c-0.3,0.4-0.4,1.5-0.4,3.2v14.8c0,1.6,0.1,2.6,0.4,3c0.3,0.5,0.8,0.7,1.5,0.7c0.8,0,1.3-0.2,1.5-0.6s0.4-1.4,0.4-2.8V955.3z"/>
	<path class="st12" d="M1166,946.3l-0.2,2.9c1.2-1.2,2.4-2,3.8-2.6c1.4-0.6,2.9-0.9,4.6-0.9c2,0,3.8,0.4,5.2,1.2
		c1.5,0.8,2.4,1.8,2.7,2.9s0.5,2.9,0.5,5.5v13.8c0,3-0.2,5.1-0.7,6.4c-0.5,1.3-1.4,2.3-2.8,3c-1.4,0.8-3.1,1.1-5.2,1.1
		c-1.6,0-3.1-0.3-4.5-0.9c-1.4-0.6-2.6-1.4-3.8-2.6v7.5h-13v-37.5H1166z M1169.7,955.8c0-2-0.1-3.3-0.3-3.7
		c-0.2-0.4-0.7-0.6-1.6-0.6c-0.9,0-1.4,0.2-1.7,0.7c-0.2,0.5-0.4,1.7-0.4,3.6v13.6c0,2,0.1,3.2,0.4,3.7c0.3,0.5,0.8,0.7,1.7,0.7
		c0.8,0,1.4-0.2,1.6-0.7c0.2-0.5,0.3-1.6,0.3-3.3V955.8z"/>
</g>
</svg>
